grf
version=1
nRows=19
nColumns=37
inDegrees=no
endheader
time	ground_force_1_vx	ground_force_1_vy	ground_force_1_vz	ground_force_1_px	ground_force_1_py	ground_force_1_pz	ground_moment_1_mx	ground_moment_1_my	ground_moment_1_mz	ground_force_2_vx	ground_force_2_vy	ground_force_2_vz	ground_force_2_px	ground_force_2_py	ground_force_2_pz	ground_moment_2_mx	ground_moment_2_my	ground_moment_2_mz	ground_force_3_vx	ground_force_3_vy	ground_force_3_vz	ground_force_3_px	ground_force_3_py	ground_force_3_pz	ground_moment_3_mx	ground_moment_3_my	ground_moment_3_mz	ground_force_4_vx	ground_force_4_vy	ground_force_4_vz	ground_force_4_px	ground_force_4_py	ground_force_4_pz	ground_moment_4_mx	ground_moment_4_my	ground_moment_4_mz
      1.39000000	      0.00000000	     -0.00000000	      0.00000000	      0.00000000	      0.00000000	      0.00000000	      0.00000000	      0.00000000	      0.00000000	      5.99747181	     -7.98591995	   -713.28155518	   -279.75090680	  -1042.77719649	      0.00000000	      0.00000000	      0.00000000	    241.08113039	      0.00000000	     -0.00000000	      0.00000000	      0.00000000	      0.00000000	      0.00000000	      0.00000000	      0.00000000	      0.00000000	    -34.77145626	     16.18130416	     75.10375977	    604.47481804	   -565.28207413	      0.00000000	      0.00000000	     -0.00000000	    -37.42135316
      1.40000000	      0.00000000	     -0.00000000	      0.00000000	      0.00000000	      0.00000000	      0.00000000	      0.00000000	      0.00000000	      0.00000000	      7.30969715	     -8.00687122	   -717.33789062	   -280.05133455	  -1043.28480956	      0.00000000	      0.00000000	      0.00000000	    180.74609003	      0.00000000	     -0.00000000	      0.00000000	      0.00000000	      0.00000000	      0.00000000	      0.00000000	      0.00000000	      0.00000000	    -35.06124355	     16.14600107	     75.56323242	    605.93989800	   -560.48115921	      0.00000000	      0.00000000	     -0.00000000	   -170.06158789
      1.41000000	      0.00000000	     -0.00000000	      0.00000000	      0.00000000	      0.00000000	      0.00000000	      0.00000000	      0.00000000	      0.00000000	      7.36345911	     -8.30243778	   -723.42211914	   -279.66238753	  -1043.54903570	      0.00000000	      0.00000000	      0.00000000	    228.66403416	      0.00000000	     -0.00000000	      0.00000000	      0.00000000	      0.00000000	      0.00000000	      0.00000000	      0.00000000	      0.00000000	    -34.62042859	     15.99381749	     75.61683655	    603.97051186	   -563.48965298	      0.00000000	      0.00000000	     -0.00000000	    -30.11241802
      1.42000000	      0.00000000	     -0.00000000	      0.00000000	      0.00000000	      0.00000000	      0.00000000	      0.00000000	      0.00000000	      0.00000000	      6.50541592	     -9.99620628	   -731.43566895	   -279.33881705	  -1043.52597556	      0.00000000	     -0.00000000	     -0.00000000	    -36.65397858	      0.00000000	     -0.00000000	      0.00000000	      0.00000000	      0.00000000	      0.00000000	      0.00000000	      0.00000000	      0.00000000	    -34.75132611	     16.01459807	     76.04953766	    603.02700140	   -561.24917430	      0.00000000	      0.00000000	     -0.00000000	   -225.03099283
      1.43000000	      0.00000000	     -0.00000000	      0.00000000	      0.00000000	      0.00000000	      0.00000000	      0.00000000	      0.00000000	      0.00000000	      7.63082361	    -10.19546509	   -730.07836914	   -278.36833522	  -1043.14135496	      0.00000000	      0.00000000	      0.00000000	     98.65809428	      0.00000000	     -0.00000000	      0.00000000	      0.00000000	      0.00000000	      0.00000000	      0.00000000	      0.00000000	      0.00000000	    -34.93039563	     16.06273575	     75.59328461	    605.06705022	   -564.86616075	      0.00000000	      0.00000000	      0.00000000	      0.79746034
      1.44000000	      0.00000000	     -0.00000000	      0.00000000	      0.00000000	      0.00000000	      0.00000000	      0.00000000	      0.00000000	      0.00000000	      6.60157776	     -7.74005699	   -728.50292969	   -275.68935384	  -1044.31514892	      0.00000000	      0.00000000	      0.00000000	     58.69448332	      0.00000000	     -0.00000000	      0.00000000	      0.00000000	      0.00000000	      0.00000000	      0.00000000	      0.00000000	      0.00000000	    -35.01997997	     16.12554666	     75.10375977	    607.96563959	   -566.06450759	      0.00000000	      0.00000000	     -0.00000000	   -116.82761037
      1.45000000	      0.00000000	     -0.00000000	      0.00000000	      0.00000000	      0.00000000	      0.00000000	      0.00000000	      0.00000000	      0.00000000	      2.56863236	     -5.12192202	   -724.37207031	   -273.62473694	  -1044.91278276	      0.00000000	      0.00000000	     -0.00000000	   -206.27056173	      0.00000000	     -0.00000000	      0.00000000	      0.00000000	      0.00000000	      0.00000000	      0.00000000	      0.00000000	      0.00000000	    -34.93642283	     16.34762688	     76.15661621	    602.09383750	   -562.42171301	      0.00000000	      0.00000000	     -0.00000000	   -142.96009899
      1.46000000	      0.00000000	     -0.00000000	      0.00000000	      0.00000000	      0.00000000	      0.00000000	      0.00000000	      0.00000000	      0.00000000	     -0.93963838	     -4.00501728	   -722.19366455	   -271.19930469	  -1044.56564037	      0.00000000	     -0.00000000	     -0.00000000	    -43.06001981	      0.00000000	     -0.00000000	      0.00000000	      0.00000000	      0.00000000	      0.00000000	      0.00000000	      0.00000000	      0.00000000	    -34.79934551	     16.19453734	     75.18612671	    605.57281163	   -564.00639475	      0.00000000	      0.00000000	     -0.00000000	   -103.97329530
      1.47000000	      0.00000000	     -0.00000000	      0.00000000	      0.00000000	      0.00000000	      0.00000000	      0.00000000	      0.00000000	      0.00000000	     -0.85589480	     -3.81172252	   -723.31250000	   -270.76676046	  -1044.06316426	      0.00000000	      0.00000000	     -0.00000000	    -80.13626459	      0.00000000	     -0.00000000	      0.00000000	      0.00000000	      0.00000000	      0.00000000	      0.00000000	      0.00000000	      0.00000000	    -34.88880016	     16.21047325	     76.32186127	    601.64869462	   -560.08173104	      0.00000000	      0.00000000	     -0.00000000	   -274.17857427
      1.48000000	      0.00000000	     -0.00000000	      0.00000000	      0.00000000	      0.00000000	      0.00000000	      0.00000000	      0.00000000	      0.00000000	      1.96792638	     -3.96894813	   -725.16143799	   -270.37279869	  -1043.97134116	      0.00000000	      0.00000000	      0.00000000	    274.30857193	      0.00000000	     -0.00000000	      0.00000000	      0.00000000	      0.00000000	      0.00000000	      0.00000000	      0.00000000	      0.00000000	    -34.76838160	     16.33196181	     76.89706421	    599.31561862	   -567.52890761	      0.00000000	      0.00000000	      0.00000000	      5.25086765
      1.49000000	      0.00000000	     -0.00000000	      0.00000000	      0.00000000	      0.00000000	      0.00000000	      0.00000000	      0.00000000	      0.00000000	      1.64282298	     -4.25219440	   -730.39605713	   -269.89902053	  -1044.24331257	      0.00000000	      0.00000000	      0.00000000	    579.79136477	      0.00000000	     -0.00000000	      0.00000000	      0.00000000	      0.00000000	      0.00000000	      0.00000000	      0.00000000	      0.00000000	    -35.00412227	     16.22054788	     76.50756836	    598.80563508	   -563.41879872	      0.00000000	      0.00000000	     -0.00000000	    -63.42865539
      1.50000000	      0.00000000	     -0.00000000	      0.00000000	      0.00000000	      0.00000000	      0.00000000	      0.00000000	      0.00000000	      0.00000000	      1.04942095	     -5.43695450	   -733.01550293	   -269.19106664	  -1043.25248003	      0.00000000	      0.00000000	      0.00000000	    839.81655282	      0.00000000	     -0.00000000	      0.00000000	      0.00000000	      0.00000000	      0.00000000	      0.00000000	      0.00000000	      0.00000000	    -34.79934550	     16.31032294	     74.80165863	    609.33113737	   -566.45710492	      0.00000000	     -0.00000000	     -0.00000000	   -117.96491369
      1.51000000	      0.00000000	     -0.00000000	      0.00000000	      0.00000000	      0.00000000	      0.00000000	      0.00000000	      0.00000000	      0.00000000	      1.03265345	     -6.82071781	   -736.83496094	   -268.30514540	  -1043.47058855	      0.00000000	      0.00000000	      0.00000000	   1111.30686138	      0.00000000	     -0.00000000	      0.00000000	      0.00000000	      0.00000000	      0.00000000	      0.00000000	      0.00000000	      0.00000000	    -34.77390147	     16.28450698	     75.95699310	    601.98090556	   -562.68397302	      0.00000000	      0.00000000	     -0.00000000	   -257.99566297
      1.52000000	      0.00000000	     -0.00000000	      0.00000000	      0.00000000	      0.00000000	      0.00000000	      0.00000000	      0.00000000	      0.00000000	     -0.47155020	     -6.89277172	   -738.14611816	   -267.48064568	  -1042.87814238	      0.00000000	      0.00000000	      0.00000000	   1002.13957410	      0.00000000	     -0.00000000	      0.00000000	      0.00000000	      0.00000000	      0.00000000	      0.00000000	      0.00000000	      0.00000000	    -35.11438611	     16.01459810	     76.80498505	    598.19891063	   -558.03524691	      0.00000000	      0.00000000	     -0.00000000	   -102.81738875
      1.53000000	      0.00000000	     -0.00000000	      0.00000000	      0.00000000	      0.00000000	      0.00000000	      0.00000000	      0.00000000	      0.00000000	     -1.20634127	     -6.71005917	   -741.25616455	   -265.56567686	  -1043.40618371	      0.00000000	      0.00000000	      0.00000000	   1216.54437910	      0.00000000	     -0.00000000	      0.00000000	      0.00000000	      0.00000000	      0.00000000	      0.00000000	      0.00000000	      0.00000000	    -35.11064005	     16.38174364	     77.39203644	    597.14464701	   -561.63128006	      0.00000000	      0.00000000	     -0.00000000	   -104.36988856
      1.54000000	      0.00000000	     -0.00000000	      0.00000000	      0.00000000	      0.00000000	      0.00000000	      0.00000000	      0.00000000	      0.00000000	     -4.10738087	     -7.95765877	   -741.93176270	   -263.74699506	  -1043.60675447	      0.00000000	      0.00000000	     -0.00000000	   1024.13617876	      0.00000000	     -0.00000000	      0.00000000	      0.00000000	      0.00000000	      0.00000000	      0.00000000	      0.00000000	      0.00000000	    -35.13564157	     16.39946673	     76.77403259	    600.26495017	   -559.22301404	      0.00000000	      0.00000000	     -0.00000000	   -235.37619585
      1.55000000	      0.00000000	     -0.00000000	      0.00000000	      0.00000000	      0.00000000	      0.00000000	      0.00000000	      0.00000000	      0.00000000	     -7.04763031	     -7.19470215	   -740.44854736	   -262.15952360	  -1043.27700198	      0.00000000	     -0.00000000	      0.00000000	    576.85212069	      0.00000000	     -0.00000000	      0.00000000	      0.00000000	      0.00000000	      0.00000000	      0.00000000	      0.00000000	      0.00000000	    -35.02146390	     15.99287339	     75.72091675	    604.04709684	   -566.38948086	      0.00000000	      0.00000000	      0.00000000	     11.32484429
      1.56000000	      0.00000000	     -0.00000000	      0.00000000	      0.00000000	      0.00000000	      0.00000000	      0.00000000	      0.00000000	      0.00000000	     -8.90267181	     -6.63864708	   -742.28656006	   -260.75411711	  -1043.64295991	      0.00000000	      0.00000000	      0.00000000	    328.29612809	      0.00000000	     -0.00000000	      0.00000000	      0.00000000	      0.00000000	      0.00000000	      0.00000000	      0.00000000	      0.00000000	    -34.84544613	     16.10733337	     75.62479401	    604.91317809	   -561.07655553	      0.00000000	      0.00000000	     -0.00000000	   -219.58909123
      1.57000000	      0.00000000	     -0.00000000	      0.00000000	      0.00000000	      0.00000000	      0.00000000	      0.00000000	      0.00000000	      0.00000000	    -10.87075996	     -5.83371592	   -744.75964355	   -259.90553659	  -1043.70033278	      0.00000000	      0.00000000	     -0.00000000	   -315.61968660	      0.00000000	     -0.00000000	      0.00000000	      0.00000000	      0.00000000	      0.00000000	      0.00000000	      0.00000000	      0.00000000	    -35.18391276	     16.30637095	     76.32719421	    602.41142141	   -563.07641771	      0.00000000	      0.00000000	     -0.00000000	   -107.55338874
